# xmcd
#
# Track frame offsets: 
#        150
#        16207
#        30132
#        42036
#        59069
#        80545
#        97081
#        118159
#        137111
#
# Disc length: 2204 seconds
#
# Revision: 0
# Processed by: cddbd v1.5.2PL0 Copyright (c) Steve Scherf et al.
# Submitted via: ExactAudioCopy v0.99pb4
#
DISCID=71089a09
DTITLE=Jo-El Sonnier - Come On Joe
DYEAR=1987
DGENRE=Cajun
TTITLE0=Baby Hold On
TTITLE1=Paid the Price
TTITLE2=So Long Baby Goodbye
TTITLE3=No More One More Time
TTITLE4=Come On Joe
TTITLE5=Rainin' In My Heart
TTITLE6=Louisiana 1927
TTITLE7=Tear-Stained Letter
TTITLE8=I've Slipped Her Mind
EXTD=
EXTT0=
EXTT1=
EXTT2=
EXTT3=
EXTT4=
EXTT5=
EXTT6=
EXTT7=
EXTT8=
PLAYORDER=
